<svg width="25" height="24" viewBox="0 0 25 24" fill="none" xmlns="http://www.w3.org/2000/svg">
<path d="M12.5 13.8721C19.4033 13.8721 25 16.2874 25 19.2668V23.1201H0V19.2668C0 16.2874 5.59667 13.8721 12.5 13.8721ZM23.3333 19.2668C23.3333 17.1397 18.4833 15.4134 12.5 15.4134C6.51667 15.4134 1.66667 17.1397 1.66667 19.2668V21.5788H23.3333V19.2668ZM12.5 0C14.0471 0 15.5308 0.568368 16.6248 1.58007C17.7188 2.59177 18.3333 3.96393 18.3333 5.39469C18.3333 6.82546 17.7188 8.19762 16.6248 9.20932C15.5308 10.221 14.0471 10.7894 12.5 10.7894C10.9529 10.7894 9.46917 10.221 8.37521 9.20932C7.28125 8.19762 6.66667 6.82546 6.66667 5.39469C6.66667 3.96393 7.28125 2.59177 8.37521 1.58007C9.46917 0.568368 10.9529 0 12.5 0ZM12.5 1.54134C11.3949 1.54134 10.3351 1.94732 9.55372 2.66996C8.77232 3.39261 8.33333 4.37272 8.33333 5.39469C8.33333 6.41667 8.77232 7.39678 9.55372 8.11943C10.3351 8.84207 11.3949 9.24805 12.5 9.24805C13.6051 9.24805 14.6649 8.84207 15.4463 8.11943C16.2277 7.39678 16.6667 6.41667 16.6667 5.39469C16.6667 4.37272 16.2277 3.39261 15.4463 2.66996C14.6649 1.94732 13.6051 1.54134 12.5 1.54134Z" fill="black"/>
</svg>
