<svg width="54" height="38" viewBox="0 0 54 38" fill="none" xmlns="http://www.w3.org/2000/svg">
<path id="Vector" d="M37.125 25.7857C36.5879 25.7857 36.0729 26.0002 35.6931 26.382C35.3134 26.7637 35.1 27.2815 35.1 27.8214C35.1 28.3613 35.3134 28.8791 35.6931 29.2609C36.0729 29.6427 36.5879 29.8571 37.125 29.8571H43.875C44.4121 29.8571 44.9271 29.6427 45.3069 29.2609C45.6867 28.8791 45.9 28.3613 45.9 27.8214C45.9 27.2815 45.6867 26.7637 45.3069 26.382C44.9271 26.0002 44.4121 25.7857 43.875 25.7857H37.125ZM0 8.82143C0 6.48184 0.924506 4.23808 2.57014 2.58374C4.21577 0.929397 6.44773 0 8.775 0H45.225C46.3773 0 47.5184 0.228173 48.583 0.671492C49.6477 1.11481 50.615 1.76459 51.4299 2.58374C52.2447 3.40288 52.8911 4.37535 53.332 5.44561C53.773 6.51588 54 7.66298 54 8.82143V29.1786C54 30.337 53.773 31.4841 53.332 32.5544C52.8911 33.6246 52.2447 34.5971 51.4299 35.4163C50.615 36.2354 49.6477 36.8852 48.583 37.3285C47.5184 37.7718 46.3773 38 45.225 38H8.775C6.44773 38 4.21577 37.0706 2.57014 35.4163C0.924506 33.7619 0 31.5182 0 29.1786V8.82143ZM49.95 12.2143V8.82143C49.95 7.56165 49.4522 6.35347 48.5661 5.46267C47.68 4.57187 46.4781 4.07143 45.225 4.07143H8.775C7.52185 4.07143 6.32003 4.57187 5.43392 5.46267C4.54781 6.35347 4.05 7.56165 4.05 8.82143V12.2143H49.95ZM4.05 16.2857V29.1786C4.05 31.8006 6.1668 33.9286 8.775 33.9286H45.225C46.4781 33.9286 47.68 33.4281 48.5661 32.5373C49.4522 31.6465 49.95 30.4383 49.95 29.1786V16.2857H4.05Z" fill="#00624A"/>
</svg>
