<svg width="30" height="25" viewBox="0 0 30 25" fill="none" xmlns="http://www.w3.org/2000/svg">
<path d="M12.2279 23.2561C12.2279 23.595 12.1188 23.9263 11.9143 24.2081C11.7099 24.49 11.4193 24.7096 11.0793 24.8393C10.7392 24.969 10.3651 25.0029 10.0041 24.9368C9.64319 24.8707 9.31163 24.7075 9.0514 24.4678C8.79116 24.2282 8.61394 23.9228 8.54214 23.5904C8.47035 23.258 8.5072 22.9135 8.64803 22.6003C8.78887 22.2872 9.02737 22.0196 9.33337 21.8313C9.63938 21.643 9.99914 21.5425 10.3672 21.5425C10.8607 21.5425 11.334 21.723 11.6829 22.0444C12.0319 22.3658 12.2279 22.8016 12.2279 23.2561ZM24.19 21.5425C23.822 21.5425 23.4623 21.643 23.1563 21.8313C22.8503 22.0196 22.6118 22.2872 22.4709 22.6003C22.3301 22.9135 22.2932 23.258 22.365 23.5904C22.4368 23.9228 22.614 24.2282 22.8743 24.4678C23.1345 24.7075 23.4661 24.8707 23.827 24.9368C24.188 25.0029 24.5621 24.969 24.9021 24.8393C25.2421 24.7096 25.5328 24.49 25.7372 24.2081C25.9417 23.9263 26.0508 23.595 26.0508 23.2561C26.0508 22.8016 25.8548 22.3658 25.5058 22.0444C25.1569 21.723 24.6836 21.5425 24.19 21.5425ZM29.9717 5.82627L26.4629 17.1361C26.2852 17.6986 25.9149 18.1932 25.4071 18.5462C24.8993 18.8991 24.2813 19.0914 23.6451 19.0945H10.9121C10.2759 19.0914 9.65791 18.8991 9.15013 18.5462C8.64235 18.1932 8.27202 17.6986 8.09436 17.1361L4.58548 5.85075V5.81403L3.28294 1.65241C3.27059 1.59954 3.23862 1.55229 3.19253 1.51878C3.14644 1.48527 3.08911 1.4676 3.0304 1.46881H0.797474C0.585971 1.46881 0.38313 1.39143 0.233575 1.25371C0.0840193 1.11598 0 0.92918 0 0.734404C0 0.539628 0.0840193 0.352829 0.233575 0.215102C0.38313 0.0773744 0.585971 0 0.797474 0H3.0304C3.43589 0.00132243 3.82998 0.123727 4.15351 0.34884C4.47704 0.573953 4.71256 0.889629 4.82472 1.24849L5.95447 4.89602H29.2008C29.3246 4.89602 29.4468 4.92257 29.5575 4.97356C29.6682 5.02455 29.7645 5.09858 29.8388 5.18979C29.9124 5.27944 29.9626 5.38345 29.9857 5.49379C30.0087 5.60414 30.0039 5.71788 29.9717 5.82627ZM28.1508 6.36483H6.40638L9.63615 16.7322C9.71426 16.9887 9.88112 17.2147 10.1114 17.376C10.3417 17.5373 10.6228 17.6249 10.9121 17.6257H23.6451C23.9344 17.6249 24.2155 17.5373 24.4458 17.376C24.6761 17.2147 24.843 16.9887 24.9211 16.7322L28.1508 6.36483Z" fill="black"/>
</svg>
