<svg width="40" height="42" viewBox="0 0 40 42" fill="none" xmlns="http://www.w3.org/2000/svg">
<g id="Group">
<path id="Vector" d="M19.2765 2.41035C19.3768 2.2825 19.5049 2.17912 19.6511 2.10803C19.7973 2.03694 19.9577 2 20.1202 2C20.2827 2 20.4431 2.03694 20.5893 2.10803C20.7354 2.17912 20.8635 2.2825 20.9639 2.41035L24.1974 6.52153C24.3286 6.68874 24.5066 6.81318 24.7087 6.87906C24.9108 6.94494 25.1279 6.94928 25.3324 6.89153L30.3642 5.46513C30.5204 5.42061 30.6847 5.41216 30.8447 5.44043C31.0047 5.46869 31.1561 5.53294 31.2877 5.62831C31.4192 5.72368 31.5273 5.84769 31.6039 5.99097C31.6805 6.13424 31.7235 6.29305 31.7298 6.45539L31.9264 11.6837C31.9347 11.8961 32.0059 12.1013 32.1309 12.2731C32.256 12.445 32.4293 12.5758 32.6289 12.649L37.539 14.4543C37.6915 14.5102 37.8292 14.6 37.9419 14.7169C38.0546 14.8338 38.1392 14.9748 38.1895 15.1292C38.2397 15.2836 38.2543 15.4474 38.232 15.6082C38.2098 15.769 38.1513 15.9227 38.061 16.0577L35.1474 20.403C35.0291 20.5796 34.9659 20.7874 34.9659 21C34.9659 21.2126 35.0291 21.4204 35.1474 21.597L38.061 25.9423C38.1513 26.0773 38.2098 26.231 38.232 26.3918C38.2543 26.5526 38.2397 26.7164 38.1895 26.8708C38.1392 27.0252 38.0546 27.1662 37.9419 27.2831C37.8292 27.4 37.6915 27.4898 37.539 27.5457L32.6289 29.351C32.4296 29.4245 32.2567 29.5554 32.132 29.7273C32.0072 29.8991 31.9363 30.1041 31.9282 30.3163L31.7298 35.5446C31.7235 35.707 31.6805 35.8658 31.6039 36.009C31.5273 36.1523 31.4192 36.2763 31.2877 36.3717C31.1561 36.4671 31.0047 36.5313 30.8447 36.5596C30.6847 36.5878 30.5204 36.5794 30.3642 36.5349L25.3324 35.1085C25.1278 35.0501 24.9104 35.054 24.708 35.1196C24.5056 35.1851 24.3272 35.3095 24.1956 35.4767L20.9657 39.5896C20.8653 39.7175 20.7372 39.8209 20.5911 39.892C20.4449 39.9631 20.2845 40 20.122 40C19.9594 40 19.799 39.9631 19.6529 39.892C19.5067 39.8209 19.3786 39.7175 19.2783 39.5896L16.0448 35.4785C15.9135 35.3113 15.7356 35.1868 15.5335 35.1209C15.3314 35.0551 15.1143 35.0507 14.9097 35.1085L9.87801 36.5349C9.72177 36.5794 9.55745 36.5878 9.39747 36.5596C9.23748 36.5313 9.08601 36.4671 8.95449 36.3717C8.82297 36.2763 8.71483 36.1523 8.63824 36.009C8.56165 35.8658 8.51862 35.707 8.51238 35.5446L8.31576 30.3163C8.3075 30.1039 8.23631 29.8987 8.11124 29.7269C7.98617 29.555 7.81285 29.4242 7.61329 29.351L2.70312 27.5457C2.55069 27.4898 2.41294 27.4 2.30027 27.2831C2.18759 27.1662 2.10293 27.0252 2.05267 26.8708C2.00241 26.7164 1.98787 26.5526 2.01013 26.3918C2.03239 26.231 2.09088 26.0773 2.18118 25.9423L5.09475 21.597C5.2131 21.4204 5.27628 21.2126 5.27628 21C5.27628 20.7874 5.2131 20.5796 5.09475 20.403L2.18118 16.0577C2.09088 15.9227 2.03239 15.769 2.01013 15.6082C1.98787 15.4474 2.00241 15.2836 2.05267 15.1292C2.10293 14.9748 2.18759 14.8338 2.30027 14.7169C2.41294 14.6 2.55069 14.5102 2.70312 14.4543L7.61329 12.649C7.81251 12.5755 7.98545 12.4446 8.11019 12.2727C8.23493 12.1009 8.30585 11.8959 8.31397 11.6837L8.51238 6.45539C8.51862 6.29305 8.56165 6.13424 8.63824 5.99097C8.71483 5.84769 8.82297 5.72368 8.95449 5.62831C9.08601 5.53294 9.23748 5.46869 9.39747 5.44043C9.55745 5.41216 9.72177 5.42061 9.87801 5.46513L14.9097 6.89153C15.1143 6.94928 15.3314 6.94494 15.5335 6.87906C15.7356 6.81318 15.9135 6.68874 16.0448 6.52153L19.2801 2.41035H19.2765Z" stroke="#00624A" stroke-width="3.5"/>
<path id="Vector_2" d="M14.7578 21L18.3327 24.5749L25.4826 17.425" stroke="#00624A" stroke-width="3.5" stroke-linecap="round" stroke-linejoin="round"/>
</g>
</svg>
