<svg width="40" height="34" viewBox="0 0 40 34" fill="none" xmlns="http://www.w3.org/2000/svg">
<path d="M36.616 18.68L22.0987 33.1574C21.8337 33.4244 21.5183 33.6363 21.1707 33.7809C20.823 33.9255 20.4501 34 20.0735 34C19.6968 34 19.3239 33.9255 18.9762 33.7809C18.6286 33.6363 18.3132 33.4244 18.0482 33.1574L3.15453 18.3047C2.12077 17.2765 1.30818 16.0489 0.76643 14.6968C0.224682 13.3448 -0.0348344 11.8967 0.00374989 10.4413C0.0423341 8.98579 0.378208 7.55345 0.990834 6.23184C1.60346 4.91024 2.47996 3.72713 3.56675 2.75487C7.74271 -1.0164 14.5533 -0.658932 18.7293 3.52343L20.0735 4.84605L21.794 3.14809C22.8258 2.12285 24.0545 1.3158 25.4064 0.775281C26.7584 0.23476 28.2058 -0.0281211 29.662 0.00238055C31.1249 0.0379683 32.5649 0.371905 33.8934 0.983613C35.222 1.59532 36.4108 2.47185 37.3867 3.55917C41.1504 7.72366 40.8099 14.5155 36.616 18.68Z" fill="#00624A"/>
</svg>
