<svg width="40" height="34" viewBox="0 0 40 34" fill="none" xmlns="http://www.w3.org/2000/svg">
<path d="M20.0557 33.9999C19.6791 34.0032 19.3057 33.9305 18.958 33.7862C18.6103 33.6418 18.2954 33.4287 18.0322 33.1597L3.15174 18.305C2.1189 17.2766 1.30702 16.0488 0.765752 14.6966C0.224483 13.3444 -0.0348035 11.8962 0.00374657 10.4405C0.0422967 8.98479 0.377874 7.55226 0.989958 6.23047C1.60204 4.90868 2.47777 3.72541 3.56359 2.75302C4.60561 1.81844 5.82712 1.10515 7.15388 0.65649C8.48063 0.207833 9.88492 0.0331822 11.2814 0.143155C14.0888 0.325213 16.7322 1.52702 18.7127 3.52168L20.0557 4.84449L21.7747 3.14629C22.8048 2.11523 24.0348 1.30476 25.3893 0.764429C26.7439 0.224096 28.1946 -0.0347434 29.6528 0.00374008C31.111 0.0422236 32.5461 0.377221 33.8701 0.988247C35.1942 1.59927 36.3795 2.47349 37.3536 3.55743C38.2898 4.59765 39.0043 5.81705 39.4538 7.14151C39.9032 8.46597 40.0782 9.86784 39.968 11.2619C39.7856 14.0644 38.5817 16.7033 36.5836 18.6803L22.0792 33.1597C21.816 33.4287 21.5011 33.6418 21.1534 33.7862C20.8057 33.9305 20.4323 34.0032 20.0557 33.9999ZM10.5651 2.98541C8.69661 2.96658 6.88647 3.63467 5.47961 4.86236C4.68207 5.5765 4.0388 6.44551 3.58914 7.41626C3.13947 8.38702 2.89285 9.43912 2.86436 10.5083C2.83587 11.5774 3.0261 12.6411 3.42342 13.6344C3.82075 14.6276 4.41682 15.5295 5.1752 16.285L21.0764 32.1587L20.0557 31.1398L34.5602 16.6604C37.6938 13.55 37.9804 8.5269 35.2406 5.47014C34.5252 4.67397 33.6547 4.03182 32.6823 3.58293C31.7099 3.13404 30.6559 2.88785 29.5849 2.85941C28.514 2.83097 27.4484 3.02087 26.4534 3.41751C25.4585 3.81414 24.555 4.40918 23.7982 5.16625L21.0764 7.88337C20.8048 8.15191 20.438 8.30256 20.0557 8.30256C19.6734 8.30256 19.3066 8.15191 19.035 7.88337L16.6892 5.54164C15.8868 4.73475 14.9329 4.09366 13.882 3.65504C12.8312 3.21642 11.7041 2.98888 10.5651 2.98541Z" fill="#00624A"/>
</svg>
