<svg width="28" height="22" viewBox="0 0 28 22" fill="none" xmlns="http://www.w3.org/2000/svg">
<path d="M14.0001 21.9873C13.7372 21.9895 13.4766 21.9425 13.2338 21.8491C12.9911 21.7557 12.7713 21.6179 12.5876 21.444L2.2001 11.8376C1.47912 11.1726 0.912381 10.3786 0.534542 9.50412C0.156703 8.62965 -0.024295 7.6931 0.00261533 6.75173C0.0295257 5.81036 0.263779 4.88396 0.691051 4.02917C1.11832 3.17439 1.72963 2.40918 2.4876 1.78035C3.215 1.17597 4.06769 0.714686 4.99384 0.424544C5.92 0.134403 6.90028 0.0214586 7.8751 0.0925768C9.83482 0.210312 11.6801 0.987509 13.0626 2.27743L14.0001 3.13287L15.2001 2.03467C15.9192 1.3679 16.7777 0.843775 17.7233 0.494347C18.6689 0.14492 19.6816 -0.0224681 20.6995 0.00241867C21.7174 0.0273055 22.7191 0.243944 23.6434 0.639088C24.5677 1.03423 25.3951 1.59957 26.0751 2.30055C26.7286 2.97325 27.2274 3.76182 27.5411 4.61833C27.8549 5.47484 27.977 6.38141 27.9001 7.28293C27.7728 9.09529 26.9324 10.8018 25.5376 12.0804L15.4126 21.444C15.2289 21.6179 15.0091 21.7557 14.7664 21.8491C14.5236 21.9425 14.263 21.9895 14.0001 21.9873ZM7.3751 1.93063C6.07077 1.91846 4.80718 2.3505 3.8251 3.14443C3.26837 3.60626 2.81933 4.16823 2.50544 4.79601C2.19154 5.42379 2.01939 6.10417 1.9995 6.79557C1.97961 7.48697 2.1124 8.17486 2.38976 8.81718C2.66712 9.4595 3.08321 10.0428 3.6126 10.5313L14.7126 20.7966L14.0001 20.1377L24.1251 10.7741C26.3126 8.76262 26.5126 5.51424 24.6001 3.53747C24.1007 3.0226 23.4931 2.60733 22.8142 2.31704C22.1354 2.02675 21.3997 1.86754 20.6521 1.84915C19.9045 1.83075 19.1607 1.95356 18.4661 2.21006C17.7716 2.46656 17.1409 2.85137 16.6126 3.34095L14.7126 5.09808C14.523 5.27174 14.267 5.36917 14.0001 5.36917C13.7333 5.36917 13.4772 5.27174 13.2876 5.09808L11.6501 3.58371C11.0899 3.0619 10.4241 2.64732 9.69051 2.36367C8.95698 2.08002 8.17018 1.93287 7.3751 1.93063Z" fill="black"/>
</svg>
