<svg width="24" height="24" viewBox="0 0 24 24" fill="none" xmlns="http://www.w3.org/2000/svg">
<g id="material-symbols:arrow-right-alt-rounded">
<path id="Vector" d="M10.7 6.72495C10.9 6.92495 10.996 7.16662 10.988 7.44995C10.98 7.73329 10.8757 7.97495 10.675 8.17495L7.85 11L19 11C19.2833 11 19.521 11.096 19.713 11.288C19.905 11.48 20.0007 11.7173 20 12C20 12.2833 19.904 12.521 19.712 12.713C19.52 12.905 19.2827 13.0006 19 13L7.85 13L10.7 15.85C10.9 16.05 11 16.2876 11 16.563C11 16.8383 10.9 17.0756 10.7 17.275C10.5 17.475 10.2623 17.575 9.987 17.575C9.71166 17.575 9.47433 17.475 9.275 17.275L4.7 12.7C4.6 12.6 4.529 12.4916 4.487 12.375C4.445 12.2583 4.42433 12.1333 4.42499 12C4.42499 11.8666 4.446 11.7416 4.488 11.625C4.53 11.5083 4.60066 11.4 4.7 11.3L9.3 6.69995C9.48333 6.51662 9.71233 6.42495 9.987 6.42495C10.2617 6.42495 10.4993 6.52495 10.7 6.72495Z" fill="#00624A"/>
</g>
</svg>
