<svg width="55" height="38" viewBox="0 0 55 38" fill="none" xmlns="http://www.w3.org/2000/svg">
<path id="Vector" d="M0 0V3.45455H32.6562V29.3636H22.0756C21.3091 26.3945 18.6519 24.1818 15.4688 24.1818C12.2856 24.1818 9.62844 26.3945 8.86188 29.3636H6.875V20.7273H3.4375V32.8182H8.86188C9.62844 35.7874 12.2856 38 15.4688 38C18.6519 38 21.3091 35.7874 22.0756 32.8182H36.3619C37.1284 35.7874 39.7856 38 42.9688 38C46.1519 38 48.8091 35.7874 49.5756 32.8182H55V18.7305L54.8917 18.4594L51.4542 8.09573L51.0812 6.90909H36.0938V0H0ZM1.71875 6.90909V10.3636H17.1875V6.90909H1.71875ZM36.0938 10.3636H48.608L51.5625 19.2159V29.3636H49.5756C48.8091 26.3945 46.1519 24.1818 42.9688 24.1818C39.7856 24.1818 37.1284 26.3945 36.3619 29.3636H36.0938V10.3636ZM3.4375 13.8182V17.2727H13.75V13.8182H3.4375ZM15.4688 27.6364C17.3886 27.6364 18.9062 29.1615 18.9062 31.0909C18.9062 33.0203 17.3886 34.5455 15.4688 34.5455C13.5489 34.5455 12.0312 33.0203 12.0312 31.0909C12.0312 29.1615 13.5489 27.6364 15.4688 27.6364ZM42.9688 27.6364C44.8886 27.6364 46.4062 29.1615 46.4062 31.0909C46.4062 33.0203 44.8886 34.5455 42.9688 34.5455C41.0489 34.5455 39.5312 33.0203 39.5312 31.0909C39.5312 29.1615 41.0489 27.6364 42.9688 27.6364Z" fill="#00624A"/>
</svg>
