<svg width="15" height="13" viewBox="0 0 15 13" fill="none" xmlns="http://www.w3.org/2000/svg">
<path d="M15 1.54424C14.4484 1.79808 13.8481 1.98078 13.2298 2.05193C13.8717 1.64508 14.3525 1.00231 14.5818 0.244239C13.9794 0.626525 13.3195 0.894591 12.6313 1.03655C12.3437 0.70852 11.9958 0.4472 11.6094 0.268868C11.2229 0.0905369 10.8062 -0.000984199 10.3852 7.98154e-06C8.68165 7.98154e-06 7.31162 1.47308 7.31162 3.28078C7.31162 3.53462 7.34046 3.78847 7.38733 4.0327C4.83656 3.89039 2.56159 2.59039 1.04915 0.600008C0.77357 1.10215 0.629156 1.6739 0.630934 2.25578C0.630934 3.39424 1.17354 4.39808 2.00096 4.98847C1.51335 4.96798 1.03715 4.825 0.611104 4.57116V4.61154C0.611104 6.20577 1.66747 7.52693 3.07535 7.83077C2.81101 7.90402 2.53907 7.9415 2.26595 7.94231C2.06586 7.94231 1.87658 7.92116 1.68549 7.89231C2.07487 9.19231 3.20875 10.1365 4.55895 10.1673C3.50258 11.05 2.17943 11.5692 0.742699 11.5692C0.484918 11.5692 0.246966 11.5596 0 11.5288C1.36282 12.4615 2.97981 13 4.72119 13C10.3744 13 13.4677 8.00385 13.4677 3.66731C13.4677 3.52501 13.4677 3.3827 13.4587 3.24039C14.0572 2.77308 14.5818 2.19424 15 1.54424Z" fill="#FBFBFB"/>
</svg>
